<svg xmlns="http://www.w3.org/2000/svg" version="1.1" xmlns:xlink="http://www.w3.org/1999/xlink" xmlns:svgjs="http://svgjs.dev/svgjs" width="109" height="57" viewBox="0 0 1500 1500"><rect width="1500" height="1500" fill="#000000"></rect><g transform="matrix(0.6666666666666666,0,0,0.6666666666666666,249.50000000000006,249.50000000000006)"><svg viewBox="0 0 280 280" data-background-color="#ffffff" preserveAspectRatio="xMidYMid meet" height="1500" width="1500" xmlns="http://www.w3.org/2000/svg" xmlns:xlink="http://www.w3.org/1999/xlink"><g id="tight-bounds" transform="matrix(1,0,0,1,0.13999999999998636,0.13999999999998636)"><svg viewBox="0 0 279.72 279.72" height="279.72" width="279.72"><g><svg viewBox="0 0 279.72 279.72" height="279.72" width="279.72"><g><svg viewBox="0 0 279.72 279.72" height="279.72" width="279.72"><g id="textblocktransform"><svg viewBox="0 0 279.72 279.72" height="279.72" width="279.72" id="textblock"><g><svg viewBox="0 0 279.72 279.72" height="279.72" width="279.72"><g transform="matrix(1,0,0,1,73.92936372216631,73.92936372216631)"><svg viewBox="0 0 131.8612725556674 131.8612725556674" height="131.8612725556674" width="131.8612725556674"><g id="icon-0"><svg xmlns="http://www.w3.org/2000/svg" xmlns:xlink="http://www.w3.org/1999/xlink" version="1.0" x="0" y="0" viewBox="10 10 80 80" enable-background="new 0 0 100 100" xml:space="preserve" height="131.8612725556674" width="131.8612725556674" class="icon-jxe-0" data-fill-palette-color="accent" id="jxe-0"><path fill="none" stroke="#84c4e8" stroke-linecap="round" stroke-linejoin="round" stroke-miterlimit="10" d="M78.33 56.667L80.275 72.222z"></path><path fill="none" stroke="#84c4e8" stroke-linecap="round" stroke-linejoin="round" stroke-miterlimit="10" d="M75.689 22.862V19.705C75.021 14.236 70.37 10 64.722 10 59.075 10 54.424 14.235 53.754 19.704V22.861A3.675 3.675 0 0 0 51.293 26.322C51.293 29.467 52.889 32.011 54.875 32.1 56.703 37.731 60.424 41.596 64.722 41.596S72.738 37.732 74.568 32.1C76.554 32.011 78.151 29.467 78.151 26.322 78.15 24.721 77.118 23.371 75.689 22.862"></path><path fill="none" stroke="#84c4e8" stroke-linecap="round" stroke-linejoin="round" stroke-miterlimit="10" d="M63.359 24.58H56.553V26.525C56.553 27.596 57.43 28.472 58.499 28.472H61.416A1.95 1.95 0 0 0 63.358 26.525z"></path><path fill="none" stroke="#84c4e8" stroke-linecap="round" stroke-linejoin="round" stroke-miterlimit="10" d="M56.554 24.58L53.754 22.862z"></path><path fill="none" stroke="#84c4e8" stroke-linecap="round" stroke-linejoin="round" stroke-miterlimit="10" d="M66.081 24.58H72.887V26.525A1.95 1.95 0 0 1 70.943 28.472H68.027A1.95 1.95 0 0 1 66.082 26.525z"></path><path fill="none" stroke="#84c4e8" stroke-linecap="round" stroke-linejoin="round" stroke-miterlimit="10" d="M72.889 24.58L75.69 22.862z"></path><path fill="none" stroke="#84c4e8" stroke-linecap="round" stroke-linejoin="round" stroke-miterlimit="10" d="M63.359 24.58H66.081z"></path><path fill="none" stroke="#84c4e8" stroke-linecap="round" stroke-linejoin="round" stroke-miterlimit="10" d="M62.292 35.745"></path><path fill="none" stroke="#84c4e8" stroke-linecap="round" stroke-linejoin="round" stroke-miterlimit="10" d="M75.689 22.862A10.97 10.97 0 0 1 67.909 19.641H67.909A10.96 10.96 0 0 0 60.132 16.419C56.61 16.419 53.754 19.304 53.754 22.862V19.705C54.424 14.236 59.074 10 64.722 10S75.021 14.235 75.69 19.704V22.862z"></path><path fill="none" stroke="#84c4e8" stroke-linecap="round" stroke-linejoin="round" stroke-miterlimit="10" d="M64.722 48.889A9.7 9.7 0 0 0 72.556 44.908 5.2 5.2 0 0 1 71.11 43.906 5.16 5.16 0 0 1 69.59 40.238V39.809C68.121 40.948 66.471 41.597 64.722 41.597 62.974 41.597 61.324 40.948 59.856 39.809V40.238A5.17 5.17 0 0 1 58.335 43.906 5.2 5.2 0 0 1 56.886 44.905C58.656 47.317 61.503 48.889 64.722 48.889"></path><path fill="none" stroke="#84c4e8" stroke-linecap="round" stroke-linejoin="round" stroke-miterlimit="10" d="M72.792 45.033C72.708 44.999 72.637 44.944 72.556 44.908A9.697 9.697 0 0 1 56.886 44.905C56.808 44.945 56.735 44.997 56.65 45.033L53.235 46.448C55.65 50.248 59.886 52.778 64.721 52.778 69.558 52.778 73.793 50.249 76.21 46.448z"></path><path fill="none" stroke="#84c4e8" stroke-linecap="round" stroke-linejoin="round" stroke-miterlimit="10" d="M58.889 85.556H10V87.78A2.23 2.23 0 0 0 12.223 90H56.667A2.227 2.227 0 0 0 58.889 87.779z"></path><path fill="none" stroke="#84c4e8" stroke-linecap="round" stroke-linejoin="round" stroke-miterlimit="10" d="M58.889 82.219C58.889 84.052 57.389 85.552 55.556 85.552H13.335A3.344 3.344 0 0 1 10 82.219V57.774C10 55.941 11.5 54.439 13.335 54.439H55.556A3.345 3.345 0 0 1 58.889 57.774z"></path><path fill="none" stroke="#84c4e8" stroke-linecap="round" stroke-linejoin="round" stroke-miterlimit="10" d="M55.556 54.439A3.345 3.345 0 0 1 58.889 57.774V72.221H90L89.996 57.395C89.996 54.926 88.996 52.691 87.382 51.074L76.21 46.448C73.793 50.248 69.558 52.778 64.721 52.778 59.886 52.778 55.65 50.249 53.235 46.448L42.063 51.074A8.9 8.9 0 0 0 39.956 54.439z"></path><circle fill="none" stroke="#84c4e8" stroke-linecap="round" stroke-linejoin="round" stroke-miterlimit="10" cx="34.444" cy="70" r="3.3"></circle></svg></g></svg></g><g id="text-0"><path d="M35.338 82.105l-2.919 7.683-2.095-0.796 0.883-2.323-5.607-0.126-4.453 11.72 4.29 3.591 1.042-2.742 2.094 0.796-2.919 7.683-2.094-0.796 0.955-2.513-21.167-18.186 0.879-2.313 28.022 0.144 0.995-2.618zM23.436 86.505l-16.812-0.341 12.865 10.728z" fill="#ffffff" data-fill-palette-color="primary"></path><path d="M77.972 4.783l-2.508 1.076-0.803-1.872 4.933-2.115 4.651 10.849c0.973-1.865 2.384-3.194 4.231-3.986v0c1.691-0.725 3.51-0.884 5.457-0.478v0c1.045 0.232 2.073 0.855 3.085 1.869 1.008 1.008 1.887 2.386 2.636 4.133v0c1.423 3.32 1.668 6.166 0.735 8.539v0c-1.053 2.697-3.014 4.661-5.884 5.891v0c-1.073 0.46-2.178 0.83-3.314 1.111-1.136 0.28-1.923 0.381-2.363 0.304v0zM84.807 14.031v0l5.916 13.797c0.799-0.136 1.623-0.385 2.471-0.749v0c2.471-1.059 4.055-2.595 4.751-4.607 0.705-2.009 0.49-4.336-0.645-6.982v0c-1.314-3.064-3.072-4.685-5.276-4.863v0c-1.071-0.102-2.224 0.111-3.459 0.641-1.236 0.53-2.488 1.451-3.758 2.763z" fill="#ffffff" data-fill-palette-color="primary"></path><path d="M181.059 25.372v0c-0.638-0.941-0.969-2.145-0.993-3.61-0.026-1.459 0.33-3.079 1.07-4.86v0c1.364-3.286 3.245-5.442 5.641-6.469v0c2.545-1.119 4.959-1.205 7.242-0.257v0c1.405 0.583 2.68 1.539 3.827 2.868v0l3.511-8.456-2.511-1.043 0.781-1.881 4.957 2.059-10.925 26.308 2.897 1.203-0.781 1.881-4.966-2.062 0.199-1.329c-1.798 0.312-3.626 0.082-5.482-0.688-1.856-0.771-3.345-1.992-4.467-3.664zM191.698 27.849v0l5.476-13.187c-1.002-0.828-2.017-1.455-3.045-1.882v0c-2.157-0.896-4.188-0.908-6.094-0.038-1.896 0.867-3.376 2.579-4.438 5.137v0c-0.562 1.354-0.848 2.581-0.856 3.681 0.001 1.096 0.234 2.005 0.699 2.727v0c0.816 1.221 1.977 2.144 3.481 2.77 1.505 0.625 3.097 0.889 4.777 0.792z" fill="#ffffff" data-fill-palette-color="primary"></path><path d="M249.016 93.768c-1.089-2.621-1.216-5.05-0.38-7.286 0.833-2.243 2.795-4.006 5.886-5.291 3.097-1.287 5.884-1.437 8.359-0.451 2.479 0.977 4.261 2.77 5.345 5.378 1.081 2.602 1.208 5.031 0.38 7.286-0.828 2.255-2.787 4.025-5.878 5.31-3.097 1.287-5.884 1.437-8.36 0.451-2.482-0.983-4.266-2.782-5.352-5.397zM266.02 86.968c-0.776-1.869-2.102-3.148-3.977-3.84-1.866-0.688-3.96-0.55-6.28 0.414-2.32 0.964-3.851 2.295-4.594 3.994-0.747 1.707-0.729 3.501 0.052 5.382 0.781 1.881 2.102 3.167 3.963 3.857 1.857 0.699 3.945 0.567 6.265-0.397 2.32-0.964 3.854-2.307 4.601-4.029 0.756-1.719 0.747-3.512-0.03-5.381z" fill="#ffffff" data-fill-palette-color="primary"></path><path d="M0 138.074c0-6.44 5.22-11.66 11.66-11.66 6.44 0 11.66 5.22 11.66 11.66 0 6.44-5.22 11.66-11.66 11.66-6.44 0-11.66-5.22-11.66-11.66z" fill="#ffffff" data-fill-palette-color="primary"></path><path d="M256.4 138.074c0-6.44 5.22-11.66 11.66-11.66 6.44 0 11.66 5.22 11.66 11.66 0 6.44-5.22 11.66-11.66 11.66-6.44 0-11.66-5.22-11.66-11.66z" fill="#ffffff" data-fill-palette-color="primary"></path></g><g id="text-1"><path d="M10.828 189.959l-2.909-8.262 2.258-0.795 0.94 2.671 24.064-8.474-2.128-6.042-3.947 0.871-0.38-2.122 6.099-1.597 6.603 18.751-5.737 2.625-1.051-1.94 3.613-1.823-2.159-6.129-24.064 8.473 1.056 2.998z" fill="#ffffff" data-fill-palette-color="secondary"></path><path d="M55.339 249.093v0c-3.101-2.305-3.835-4.749-2.201-7.333v0c0.094-0.184 0.202-0.357 0.323-0.521v0c1.458-1.962 3.61-2.393 6.456-1.293v0c1.545 0.641 4.341 2.139 8.385 4.494v0l2.005-2.698c1.887-2.539 1.501-4.797-1.158-6.774v0c-1.929-1.4-4.287-2.467-7.074-3.202v0l0.529-1.941 0.447 0.116c2.407 0.563 4.151 1.119 5.232 1.668 1.075 0.545 1.84 0.979 2.295 1.3 0.454 0.312 0.875 0.633 1.263 0.964 0.393 0.326 0.847 0.824 1.363 1.495 0.512 0.677 0.882 1.362 1.111 2.057 0.223 0.69 0.26 1.505 0.113 2.444-0.153 0.935-0.576 1.868-1.269 2.8v0l-8.013 10.782 2.689 1.998-1.3 1.75-4.619-3.433 0.639-1.594c-2.827-0.578-5.232-1.605-7.216-3.079zM57.165 247.951v0c1.777 1.32 3.901 2.286 6.374 2.897v0l3.724-5.011c-3.588-2.48-6.023-3.927-7.307-4.339v0c-0.954-0.379-1.796-0.417-2.528-0.115-0.736 0.307-1.226 0.625-1.469 0.951-0.243 0.327-0.407 0.548-0.492 0.662v0c-0.553 0.892-0.642 1.769-0.267 2.631 0.379 0.857 1.034 1.631 1.965 2.324z" fill="#ffffff" data-fill-palette-color="secondary"></path><path d="M133.765 247.198l-2.917-0.191 0.143-2.175 5.742 0.377-2 30.458 3.262 0.214-0.143 2.175-8.791-0.578 0.143-2.174 2.704 0.177z" fill="#ffffff" data-fill-palette-color="secondary"></path><path d="M198.748 253.729v0c1.261 2.259 2.827 3.538 4.698 3.839 1.868 0.31 3.665-0.017 5.39-0.98v0c1.12-0.626 2.209-1.378 3.267-2.256 1.061-0.872 1.731-1.503 2.011-1.893v0l1.496 1.51c-0.375 0.707-1.158 1.561-2.35 2.56-1.186 0.996-2.333 1.804-3.441 2.423-1.103 0.616-2.156 1.056-3.159 1.321-1.001 0.255-2.119 0.348-3.357 0.276-1.247-0.074-2.481-0.586-3.704-1.536-1.225-0.941-2.341-2.313-3.347-4.115v0c-1.874-3.355-2.443-6.401-1.708-9.137v0c0.766-2.862 2.341-4.958 4.724-6.289 2.389-1.334 4.581-1.691 6.576-1.07 1.992 0.614 3.654 2.116 4.988 4.505v0c0.285 0.51 0.551 1.077 0.798 1.7v0l-13.596 7.592c0.221 0.577 0.459 1.093 0.714 1.55zM208.398 243.896v0c-0.881-1.577-2.029-2.526-3.445-2.847-1.41-0.325-2.737-0.139-3.982 0.555v0c-1.701 0.95-2.823 2.249-3.365 3.897-0.548 1.651-0.593 3.333-0.134 5.045v0l11.16-6.232c-0.086-0.154-0.164-0.293-0.234-0.418z" fill="#ffffff" data-fill-palette-color="secondary"></path><path d="M235.619 189.437l-1.244 2.645-1.973-0.927 2.449-5.207 11.447 5.382c-0.548-2.186-0.364-4.253 0.552-6.2v0c0.841-1.788 2.185-3.212 4.034-4.271v0c0.998-0.559 2.262-0.79 3.792-0.692 1.533 0.091 3.218 0.568 5.056 1.431v0c3.502 1.647 5.726 3.754 6.672 6.323v0c1.069 2.911 0.893 5.879-0.529 8.901v0c-0.532 1.131-1.153 2.212-1.862 3.244-0.71 1.032-1.269 1.677-1.676 1.935v0zM247.671 191.976v0l14.562 6.848c0.543-0.675 1.025-1.461 1.447-2.359v0c1.225-2.605 1.404-4.963 0.536-7.075-0.868-2.111-2.697-3.823-5.487-5.134v0c-3.238-1.523-5.804-1.57-7.698-0.143v0c-0.928 0.681-1.699 1.673-2.311 2.977-0.613 1.303-0.962 2.931-1.049 4.886z" fill="#ffffff" data-fill-palette-color="secondary"></path></g></svg></g></svg></g></svg></g></svg></g><defs></defs></svg><rect width="279.72" height="279.72" fill="none" stroke="none" visibility="hidden"></rect></g></svg></g></svg>