<?xml version="1.0" encoding="utf-8"?>
<svg viewBox="868.0973510742188 124.54165649414062 108.6793212890625 18.898529052734375" width="227" height="72" xmlns="http://www.w3.org/2000/svg">
  <defs>
    <linearGradient id="gradient" x1="0%" y1="0%" x2="100%" y2="0%">
      <stop offset="0%" style="stop-color:#82a9fd; stop-opacity:1" />
      <stop offset="100%" style="stop-color:#C687FF; stop-opacity:1" />
    </linearGradient>
  </defs>
  <path fill="url(#gradient)" d="M1660,247.5c-5.2-9.6-25.7-4.9-33.9-4.3c-30,2-59.7,7.1-89.5,10.6c-12.5,1.5-24.4,3.4-36.9,4.8&#10;&#9;&#9;&#9;c-34,3.7-42.6-4.6-42.3-2.3c1.4,9.2,14.5,10.2,21.8,11.6c23.2,4.2,46.8-0.7,69.8-4.6c20.3-3.4,40.7-6.7,61.2-8.2&#10;&#9;&#9;&#9;c5.5-0.4,15.3-1,20.8-1.4c19.1-1.4,9.9,5.2,9.8,5.3c-16.9,12.2-27.7,8.8-44.2,9.8c-3.2,0.2-7.5,2-3.3,2.6c17.1,2.6,36.8,1.5,53-5&#10;&#9;&#9;&#9;C1652.8,263.7,1664.7,256.3,1660,247.5z" transform="matrix(0.5235042572021484, 0, 0, 0.5235042572021484, 105.29924774169916, 0.000004561539753922261)"/>
</svg>
